<?xml version="1.0" encoding="UTF-8" ?>
<!DOCTYPE svg PUBLIC "-//W3C//DTD SVG 1.1//EN" "http://www.w3.org/Graphics/SVG/1.1/DTD/svg11.dtd">
<svg width="985pt" height="529pt" viewBox="0 0 985 529" version="1.1" xmlns="http://www.w3.org/2000/svg">
<g id="#000000ff">
<path fill="#000000" opacity="1.00" d=" M 914.94 4.87 C 921.46 1.60 929.26 -1.20 936.46 1.58 C 941.80 3.46 945.28 8.18 948.64 12.46 C 956.34 22.56 961.82 35.01 961.19 47.93 C 961.07 53.00 958.92 57.66 957.25 62.35 C 945.26 94.94 929.66 126.12 912.01 155.98 C 920.98 160.01 930.56 162.35 939.88 165.44 C 945.63 167.38 951.54 171.58 952.36 178.05 C 953.71 187.75 949.21 196.89 945.36 205.49 C 953.64 211.85 959.83 220.36 967.53 227.34 C 974.28 233.57 983.09 239.29 984.71 249.05 C 984.56 256.19 980.01 262.31 975.10 267.13 C 959.65 282.31 938.24 293.81 916.01 291.23 C 907.13 289.91 899.05 283.37 896.55 274.65 C 893.22 264.04 895.72 252.74 899.12 242.49 C 893.10 241.81 887.25 239.33 883.06 234.87 C 877.36 229.15 874.23 221.45 872.46 213.70 C 860.67 229.02 847.73 243.45 834.01 257.06 C 827.90 263.54 820.65 268.96 814.81 275.63 C 806.89 296.53 799.95 317.94 796.03 339.99 C 795.05 345.12 794.80 350.36 795.02 355.58 C 800.82 354.14 806.34 351.79 811.56 348.89 C 814.19 327.21 820.24 306.01 828.91 285.98 C 836.79 268.41 845.24 250.66 858.27 236.24 C 861.33 232.79 866.60 232.59 870.62 234.33 C 877.69 237.27 884.95 241.24 889.03 247.99 C 892.63 254.08 891.33 261.91 887.73 267.70 C 875.55 288.17 868.34 311.11 862.76 334.13 C 871.31 326.53 879.01 318.04 886.61 309.50 C 892.04 302.05 902.07 303.47 910.11 302.67 C 910.78 307.41 912.61 312.96 909.24 317.12 C 898.80 331.48 886.45 344.34 873.37 356.31 C 867.67 361.60 861.65 366.52 856.01 371.86 C 851.59 375.96 846.33 379.96 840.04 380.14 C 834.64 380.47 830.04 377.17 825.78 374.32 C 817.95 379.72 809.93 386.14 800.09 386.97 C 794.47 387.59 789.17 385.22 784.31 382.70 C 777.43 379.13 771.31 374.28 765.57 369.11 C 758.35 376.75 750.23 383.43 742.62 390.66 C 739.21 393.93 734.93 396.68 730.07 396.84 C 723.47 397.38 717.86 393.33 712.06 390.88 C 707.54 388.78 702.20 387.07 699.62 382.45 C 696.17 375.88 696.70 368.20 696.43 361.02 C 687.64 373.65 678.46 386.02 668.79 398.00 C 665.66 401.79 661.21 405.39 655.97 404.72 C 647.88 404.08 641.63 398.23 636.09 392.86 C 630.87 397.71 625.96 402.89 620.47 407.44 C 614.15 412.55 604.95 411.68 598.24 407.80 C 591.54 404.16 582.66 402.63 578.82 395.31 C 576.11 388.41 577.07 380.78 576.12 373.55 C 566.80 387.29 556.86 400.59 546.54 413.59 C 542.95 418.21 536.58 421.04 530.83 419.10 C 522.91 416.25 515.87 410.66 511.72 403.30 C 507.85 396.18 505.48 388.21 505.09 380.10 C 504.41 368.17 507.03 356.36 510.33 344.97 C 505.74 346.27 501.14 347.56 496.54 348.81 C 492.70 367.79 488.87 387.50 477.87 403.84 C 472.65 412.06 464.54 418.64 454.99 420.98 C 446.78 423.20 438.29 420.51 430.75 417.28 C 423.48 414.08 417.19 408.96 412.25 402.77 C 406.69 411.87 400.36 420.45 394.24 429.17 C 391.50 432.97 388.46 437.02 383.93 438.75 C 379.23 440.61 373.68 439.28 370.06 435.85 C 364.51 430.79 361.48 423.76 357.29 417.66 C 355.02 414.26 351.87 411.36 350.54 407.40 C 348.36 401.06 349.35 394.18 350.73 387.78 C 355.77 364.08 365.53 341.75 375.63 319.84 C 358.88 323.01 342.10 326.01 325.26 328.66 C 311.38 346.68 296.86 364.20 283.85 382.87 C 269.96 402.37 256.64 422.27 242.77 441.79 C 226.64 464.77 209.42 487.77 186.35 504.26 C 168.06 517.42 146.45 526.25 123.93 528.27 C 117.76 528.54 112.90 520.15 117.31 515.32 C 122.61 509.73 129.58 506.14 135.63 501.45 C 124.98 500.85 113.96 501.66 103.72 498.15 C 96.79 495.75 97.53 483.97 104.84 482.64 C 120.44 478.51 134.80 470.84 148.60 462.64 C 169.70 449.24 185.87 429.77 201.85 410.89 C 213.43 397.04 225.01 383.14 235.23 368.25 C 242.11 358.06 249.72 348.39 257.34 338.76 C 219.73 344.23 182.55 352.71 146.29 364.12 C 116.35 373.59 86.98 385.96 61.29 404.26 C 51.08 410.88 43.18 420.44 36.60 430.55 C 34.64 433.45 33.33 437.39 29.70 438.59 C 24.87 440.53 18.94 436.22 19.41 431.01 C 20.04 423.18 22.88 415.77 24.52 408.13 C 19.50 410.74 14.72 414.36 8.95 415.05 C 3.02 415.76 -1.70 408.41 1.17 403.25 C 7.04 392.30 15.80 383.14 25.41 375.39 C 39.85 363.46 55.03 352.26 71.71 343.65 C 117.92 320.95 168.64 308.91 219.48 302.24 C 245.18 298.71 270.98 295.97 296.68 292.41 C 317.66 270.49 338.07 247.94 360.52 227.48 C 399.02 192.10 438.41 157.48 481.10 127.19 C 485.64 124.01 489.80 120.09 495.05 118.07 C 499.12 116.48 503.58 117.53 507.81 116.80 C 512.30 116.26 517.45 114.68 521.51 117.51 C 525.45 120.59 528.32 124.77 531.70 128.42 C 535.69 132.64 539.88 137.80 539.14 144.02 C 537.89 152.03 531.83 157.94 526.98 163.99 C 518.70 174.65 510.21 185.16 502.62 196.33 C 508.11 203.27 513.27 210.94 514.66 219.87 C 517.15 232.77 513.25 246.05 506.51 257.05 C 518.09 256.74 529.83 259.33 539.96 265.01 C 544.67 267.69 547.55 272.48 550.01 277.14 C 558.64 267.99 569.19 259.57 581.92 257.45 C 594.48 255.38 606.82 260.95 616.67 268.32 C 621.64 272.24 627.24 276.06 629.85 282.08 C 632.77 288.51 632.53 295.77 631.76 302.63 C 634.36 305.57 637.49 308.77 637.37 312.99 C 637.00 322.18 632.02 330.24 629.58 338.92 C 627.11 347.76 624.76 356.73 624.23 365.94 C 625.76 363.53 627.54 361.09 627.76 358.15 C 630.74 326.98 645.38 297.94 665.08 274.00 C 673.70 263.57 683.86 253.57 696.92 249.07 C 703.96 246.45 711.87 246.50 718.97 248.91 C 728.08 251.91 735.99 257.62 743.22 263.77 C 750.75 270.28 753.31 281.30 750.28 290.66 C 753.30 294.07 755.89 297.84 757.86 301.95 C 759.59 289.81 763.87 278.26 767.73 266.68 C 778.60 236.18 790.17 205.90 803.48 176.38 C 818.22 144.05 834.63 112.45 853.02 82.04 C 863.58 64.58 874.87 47.52 887.47 31.46 C 895.45 21.53 903.33 10.81 914.94 4.87 M 903.52 24.50 C 885.68 45.25 870.53 68.15 856.58 91.64 C 821.40 150.63 793.92 213.97 771.99 278.99 C 766.31 296.10 762.41 313.79 760.77 331.74 C 756.34 345.88 747.47 358.25 737.42 368.97 C 736.64 361.97 736.88 354.87 738.11 347.94 C 739.56 339.83 740.82 331.62 743.59 323.83 C 745.25 318.80 747.42 313.95 748.95 308.88 C 749.96 305.76 749.66 302.09 747.40 299.58 C 742.84 294.00 735.46 292.38 729.09 289.76 C 725.93 288.81 722.10 286.84 719.03 288.98 C 716.42 294.81 715.95 301.67 711.79 306.82 C 695.79 326.80 681.79 348.44 663.93 366.88 C 662.27 368.77 659.71 369.23 657.40 369.81 C 656.86 366.62 656.98 363.34 658.07 360.27 C 662.99 344.47 671.05 329.83 680.04 316.01 C 687.99 304.22 696.33 292.46 706.94 282.89 C 713.73 276.55 724.05 276.35 732.57 278.63 C 736.61 279.76 739.07 283.38 740.90 286.91 C 741.83 286.76 742.78 286.62 743.73 286.48 C 743.64 281.30 743.45 275.42 739.49 271.55 C 731.69 263.73 722.01 257.12 710.97 255.18 C 699.05 254.03 688.44 261.38 680.26 269.27 C 666.54 283.10 655.28 299.40 647.19 317.13 C 641.16 330.74 636.60 345.22 635.67 360.14 C 635.43 362.61 634.58 365.02 633.09 367.01 C 628.87 372.77 623.72 377.77 618.42 382.52 C 616.72 377.93 615.10 373.09 615.66 368.13 C 617.44 352.39 621.06 336.80 627.16 322.15 C 628.27 318.76 630.23 314.87 628.64 311.36 C 622.99 304.26 613.63 302.13 605.32 299.73 C 586.10 324.72 568.50 350.99 547.70 374.73 C 545.95 376.83 543.51 378.13 541.13 379.36 C 542.61 364.21 550.47 350.78 557.82 337.80 C 565.71 324.40 574.71 311.61 585.08 300.01 C 589.80 294.94 595.21 289.45 602.50 288.74 C 607.44 288.29 613.20 287.30 617.46 290.50 C 620.62 294.14 619.89 299.49 621.72 303.78 C 624.52 299.41 625.39 293.94 623.83 288.96 C 622.13 281.96 615.85 277.68 610.42 273.65 C 602.21 268.12 592.24 263.17 582.09 265.46 C 571.11 268.01 562.18 275.67 554.73 283.78 C 542.50 297.04 532.66 312.39 525.07 328.73 C 513.94 331.31 502.49 331.99 491.24 333.83 C 495.29 319.07 497.47 302.88 507.73 290.82 C 513.29 283.49 521.87 278.45 531.17 278.17 C 531.31 288.23 525.42 296.68 520.72 305.09 C 527.19 302.15 533.42 298.39 538.16 293.01 C 540.37 290.46 542.80 287.60 542.89 284.04 C 543.00 278.39 539.07 273.27 534.08 270.93 C 525.09 266.59 514.87 263.98 504.87 265.37 C 493.54 267.54 484.20 275.44 477.26 284.30 C 465.22 300.90 462.09 321.90 460.62 341.85 C 447.84 349.39 433.64 355.32 423.42 366.45 C 413.20 377.96 404.63 390.84 394.22 402.20 C 396.46 384.84 402.15 368.18 407.72 351.66 C 414.29 332.98 422.15 314.76 431.08 297.08 C 439.24 293.95 447.43 290.89 455.43 287.36 C 469.77 281.15 483.32 272.53 493.70 260.72 C 501.80 251.43 507.72 239.56 507.50 227.01 C 507.21 215.39 500.66 204.75 491.76 197.62 C 503.05 181.45 515.21 165.91 527.57 150.56 C 530.04 147.44 532.42 142.87 530.05 139.05 C 526.09 133.53 521.15 128.80 516.72 123.66 C 512.55 124.45 508.31 124.74 504.08 124.94 C 501.01 125.18 497.69 125.20 495.10 127.09 C 446.56 160.68 402.07 199.69 358.98 239.92 C 339.05 258.35 321.21 278.85 302.06 298.04 C 300.34 300.22 297.42 300.16 294.93 300.60 C 252.12 306.61 208.88 310.09 166.61 319.46 C 149.94 323.11 133.56 328.00 117.37 333.41 C 99.64 339.43 82.19 346.53 65.97 355.96 C 52.01 364.29 39.08 374.22 26.72 384.74 C 19.20 391.14 12.57 398.73 8.06 407.56 C 17.18 403.94 24.99 397.20 34.91 395.69 C 33.46 407.40 29.81 418.66 27.34 430.17 C 33.74 419.92 41.07 410.06 50.46 402.34 C 81.84 378.23 119.22 363.55 156.92 352.56 C 195.99 341.21 235.95 332.86 276.36 328.11 C 266.11 340.65 255.74 353.13 246.31 366.32 C 238.90 377.18 231.18 387.82 222.85 398.00 C 205.67 418.94 188.69 440.29 168.23 458.18 C 154.53 469.67 138.54 478.08 122.24 485.23 C 117.05 487.65 111.34 488.63 106.14 491.02 C 121.71 494.35 137.74 492.91 153.49 494.61 C 145.84 505.80 133.53 512.12 123.15 520.35 C 151.45 517.87 177.75 503.74 198.01 484.23 C 211.19 471.49 222.29 456.79 232.91 441.91 C 248.07 420.66 262.57 398.96 277.72 377.71 C 291.33 358.25 306.47 339.95 321.06 321.23 C 343.95 317.82 366.67 313.40 389.44 309.31 C 377.54 334.74 365.03 360.26 358.84 387.82 C 357.85 392.77 356.52 397.88 357.51 402.94 C 358.16 406.04 360.41 408.40 362.23 410.87 C 366.61 416.59 369.51 423.32 374.22 428.81 C 375.41 430.18 376.92 431.70 378.92 431.54 C 382.11 431.37 384.57 428.93 386.38 426.52 C 396.03 412.77 405.97 399.14 413.87 384.27 C 415.91 401.62 433.29 413.87 450.07 413.67 C 459.86 412.96 467.51 405.45 472.49 397.56 C 482.70 380.93 485.77 361.31 489.78 342.54 C 500.64 339.40 511.49 336.09 522.64 334.06 C 518.04 346.26 514.04 358.87 513.04 371.94 C 512.22 381.09 513.88 390.58 518.37 398.65 C 521.59 404.47 526.82 409.26 533.11 411.52 C 536.53 412.57 539.36 409.66 541.34 407.28 C 558.71 385.51 574.46 362.50 589.46 339.06 C 584.90 355.28 583.18 372.34 585.18 389.10 C 585.41 390.98 586.35 392.80 587.95 393.87 C 591.45 396.33 595.56 397.68 599.39 399.53 C 603.08 401.22 606.84 403.51 611.08 403.10 C 613.64 402.87 615.58 401.01 617.46 399.44 C 624.62 393.13 631.33 386.34 638.37 379.90 C 641.52 387.40 647.26 394.30 655.27 396.72 C 658.44 397.82 660.91 394.87 662.78 392.76 C 679.63 371.71 695.20 349.64 709.54 326.81 C 706.14 340.89 703.55 355.38 704.66 369.91 C 704.94 372.82 705.11 375.89 706.56 378.51 C 707.74 380.05 709.61 380.81 711.28 381.73 C 716.10 384.01 720.87 386.43 725.85 388.38 C 729.60 389.88 733.75 388.16 736.47 385.46 C 746.33 375.97 757.40 367.62 765.73 356.64 C 773.46 366.61 783.76 375.14 795.97 378.83 C 807.77 379.84 816.52 370.42 825.67 364.53 C 830.25 367.38 834.38 371.76 840.03 372.25 C 844.75 371.46 848.41 367.94 851.89 364.89 C 857.63 359.30 863.89 354.30 869.73 348.82 C 882.22 337.32 893.82 324.80 903.79 311.04 C 900.18 311.53 895.77 311.02 893.22 314.20 C 880.35 328.25 867.45 342.84 850.82 352.56 C 856.50 321.49 865.20 290.48 881.13 262.98 C 883.35 259.34 884.06 254.26 881.30 250.71 C 877.13 245.72 870.97 243.01 865.00 240.84 C 851.82 254.89 843.71 272.60 835.93 289.97 C 826.91 309.96 821.70 331.48 819.01 353.19 C 810.22 359.67 799.58 363.99 788.53 363.86 C 785.95 353.32 787.07 342.32 789.50 331.87 C 793.42 311.98 800.05 292.77 806.80 273.71 C 808.49 268.83 812.89 265.87 816.54 262.55 C 836.58 244.52 854.59 224.29 870.71 202.70 C 870.13 193.62 870.78 184.47 872.72 175.57 C 855.67 202.57 836.34 228.12 815.13 251.99 C 816.92 246.28 818.92 240.65 821.13 235.10 C 846.40 172.38 876.11 110.88 915.99 56.02 C 920.20 50.50 923.85 44.23 929.92 40.50 C 929.39 47.24 927.18 53.65 925.44 60.13 C 916.32 92.16 902.84 122.87 886.52 151.86 C 892.57 150.71 898.76 151.29 904.66 152.96 C 923.42 120.79 940.31 87.35 952.42 52.08 C 953.83 47.57 953.29 42.72 952.41 38.17 C 950.12 27.85 944.22 18.61 936.88 11.14 C 934.38 8.46 930.41 7.92 927.00 8.78 C 917.52 10.87 909.76 17.36 903.52 24.50 M 841.51 206.54 C 871.70 166.70 895.88 122.25 912.58 75.11 C 883.91 116.01 861.87 161.07 841.51 206.54 M 883.20 168.20 C 879.59 178.01 878.66 188.59 878.89 198.98 C 879.20 209.21 881.44 219.90 887.80 228.16 C 891.28 232.64 897.08 234.24 902.54 234.16 C 903.98 231.47 905.46 228.80 907.00 226.16 C 899.65 225.44 892.18 222.51 887.53 216.56 C 884.61 213.13 883.77 208.58 883.67 204.21 C 890.99 212.16 901.00 217.59 911.85 218.49 C 916.16 213.29 920.57 207.90 926.54 204.54 C 929.91 202.43 934.03 202.89 937.78 202.09 C 941.07 195.79 943.98 189.11 944.62 181.96 C 944.91 178.93 943.30 175.78 940.45 174.57 C 931.59 170.54 921.84 168.98 912.90 165.16 C 906.41 162.82 900.09 159.04 892.99 159.30 C 888.04 159.40 884.86 164.05 883.20 168.20 M 924.48 216.48 C 913.85 227.77 906.28 242.13 903.73 257.49 C 902.70 264.30 902.95 271.98 907.29 277.69 C 911.33 282.68 918.16 283.39 924.11 284.11 C 924.66 283.23 925.24 282.36 925.84 281.51 L 926.75 283.39 C 930.88 283.29 934.84 281.91 938.73 280.65 C 951.52 276.13 963.33 268.48 972.23 258.20 C 974.40 255.36 977.26 251.88 975.95 248.07 C 974.04 243.31 969.56 240.36 965.98 236.95 C 959.62 231.33 953.79 225.16 948.03 218.95 C 944.62 215.44 940.95 211.56 935.97 210.54 C 931.34 210.12 927.53 213.42 924.48 216.48 M 501.75 324.35 C 507.58 323.49 513.43 322.67 519.30 322.07 C 520.87 319.12 522.44 316.17 524.09 313.26 C 521.64 312.74 519.02 312.46 516.93 310.97 C 514.58 309.30 513.08 306.79 511.49 304.47 C 514.44 299.46 517.61 294.58 520.27 289.41 C 509.53 297.95 504.70 311.41 501.75 324.35 M 700.05 301.97 C 689.95 315.00 680.29 328.59 673.63 343.75 C 684.00 331.00 693.07 317.25 703.50 304.55 C 706.77 300.74 708.60 295.99 710.00 291.22 C 706.36 294.50 703.03 298.09 700.05 301.97 M 436.75 303.41 C 426.18 324.93 417.19 347.21 409.93 370.06 C 414.29 364.72 418.69 359.32 424.02 354.89 C 432.77 347.53 443.15 342.58 453.06 337.02 C 454.14 321.86 457.03 306.70 463.08 292.70 C 454.52 296.77 445.58 299.97 436.75 303.41 M 746.97 343.01 C 748.82 339.71 750.73 336.43 752.11 332.90 C 754.08 328.14 753.76 322.86 754.00 317.83 C 751.17 326.07 748.46 334.40 746.97 343.01 Z" />
<path fill="#000000" opacity="1.00" d=" M 498.51 139.45 C 464.56 183.77 432.78 229.91 406.09 279.00 C 404.54 281.46 403.38 285.05 399.99 285.34 C 381.45 288.46 362.90 291.53 344.29 294.19 C 392.54 239.60 443.85 187.65 498.51 139.45 M 444.44 200.71 C 416.78 227.04 390.63 254.90 364.86 283.07 C 375.84 281.14 386.91 279.71 397.84 277.50 C 411.99 251.09 427.86 225.64 444.44 200.71 Z" />
<path fill="#000000" opacity="1.00" d=" M 883.82 184.31 C 885.84 180.93 888.08 177.10 892.09 175.86 C 896.05 174.78 900.99 176.22 903.00 180.02 C 904.77 183.06 904.77 186.68 905.11 190.08 C 902.52 187.31 900.17 183.79 896.26 182.81 C 892.07 181.57 887.84 183.24 883.82 184.31 Z" />
<path fill="#000000" opacity="1.00" d=" M 913.00 192.57 C 914.98 189.46 917.29 186.05 921.09 185.08 C 926.29 183.22 932.81 186.49 933.91 192.01 C 934.47 195.26 934.52 198.87 932.85 201.82 C 932.65 201.87 932.24 201.96 932.04 202.01 C 931.72 199.57 932.68 196.38 930.32 194.70 C 925.72 190.11 918.67 190.36 913.00 192.57 Z" />
<path fill="#000000" opacity="1.00" d=" M 895.80 204.22 C 894.12 202.59 893.32 198.15 896.89 198.78 C 899.72 200.85 901.95 203.62 904.36 206.15 C 907.56 205.82 910.75 205.45 913.95 205.11 C 914.31 206.50 914.67 207.89 915.05 209.29 C 911.21 209.87 907.27 211.30 903.38 210.38 C 900.35 209.09 898.00 206.60 895.80 204.22 Z" />
<path fill="#000000" opacity="1.00" d=" M 444.17 272.00 C 458.10 247.19 473.36 223.12 490.05 200.06 C 495.33 206.18 499.50 213.73 499.49 222.03 C 500.16 234.22 492.65 245.26 483.24 252.33 C 471.41 260.99 457.88 266.99 444.17 272.00 M 489.93 214.05 C 480.64 227.44 471.55 241.00 463.43 255.13 C 473.40 249.86 483.99 243.78 489.26 233.31 C 492.44 227.36 491.92 220.29 489.93 214.05 Z" />
<path fill="#000000" opacity="1.00" d=" M 919.24 229.96 C 921.92 228.26 924.63 226.31 927.87 225.94 C 932.19 225.18 936.52 228.14 938.10 232.08 C 939.39 236.19 937.43 240.31 936.10 244.14 C 935.32 240.64 934.31 236.95 931.51 234.49 C 928.30 231.21 923.62 230.33 919.24 229.96 Z" />
<path fill="#000000" opacity="1.00" d=" M 942.25 249.45 C 945.36 248.10 948.52 246.36 952.03 246.49 C 956.98 246.62 961.30 251.07 961.36 256.02 C 961.66 259.74 959.46 262.91 957.58 265.89 C 957.27 262.49 957.31 258.71 954.96 255.96 C 952.03 251.85 946.89 250.51 942.25 249.45 Z" />
<path fill="#000000" opacity="1.00" d=" M 921.32 252.03 C 920.60 249.55 923.27 248.57 925.05 247.84 C 926.07 251.48 927.23 255.08 928.56 258.63 C 932.41 259.81 937.32 260.48 938.32 265.17 C 933.79 265.74 929.13 264.31 925.49 261.65 C 923.32 258.88 922.19 255.40 921.32 252.03 Z" />
<path fill="#000000" opacity="1.00" d=" M 903.49 261.15 C 906.79 258.77 910.87 256.87 915.03 258.08 C 924.88 259.95 932.42 272.43 926.19 281.32 C 925.37 281.23 923.72 281.05 922.90 280.96 L 924.32 280.82 C 923.25 270.23 913.65 262.44 903.49 261.15 Z" />
<path fill="#000000" opacity="1.00" d=" M 427.54 390.85 C 432.20 375.88 444.47 364.75 457.57 356.91 C 454.75 367.61 450.60 378.10 444.18 387.17 C 440.34 392.54 434.84 397.67 427.91 398.01 C 425.42 396.27 427.02 393.20 427.54 390.85 Z" />
</g>
</svg>
